<?xml version="1.0" encoding="UTF-8"?><svg id="Layer_2" xmlns="http://www.w3.org/2000/svg" viewBox="0 0 56 50"><path d="m44.06,15.04C42.23,4.5,31.06-1.41,21.28,2.93c-8.66,3.86-12.25,14.55-7.5,22.74,2.84,4.92,5.91,9.71,8.91,14.54,1.71,2.75,3.48,5.46,5.3,8.3,1.18-1.85,2.32-3.57,3.4-5.32,3.65-5.87,7.33-11.74,10.91-17.66,1.95-3.23,2.4-6.81,1.76-10.49Zm-16.01,9.95c-4,0-7.23-3.2-7.23-7.16s3.19-7.19,7.19-7.19,7.17,3.21,7.16,7.21c-.02,3.91-3.24,7.14-7.12,7.14Z" fill="#fff" stroke="#fff" stroke-miterlimit="10" stroke-width=".5"/></svg>