<?xml version="1.0" encoding="UTF-8"?><svg id="Layer_2" xmlns="http://www.w3.org/2000/svg" viewBox="0 0 832 114"><path d="m12.25,105.37c-2.38-.02-4.1-.03-5.78-.05-1.48-1.23-2.36-2.76-2.38-4.53-.18-14.01.36-27.99,2.15-41.91.26-2.04.07-4.14.15-6.2.29-7.02,3.57-9.16,10.67-6.99,5.29,10.55,10.57,21.11,16.29,32.54,5.7-8.58,8.13-17.26,12.11-25.16,2.59-5.15,5.42-7.78,12.2-6.04,3.01,15.7,6.13,31.73,2.13,48.24-3.23-.03-5.13-.04-7.35-.06-2.74-7.28-.6-14.97-1.44-22.56-2.15-.83-2.97-.03-4.03,2.1-3.19,6.38-5.12,13.4-9.92,19.35-7.36,1.31-8.24-5.95-11.74-9.74-3.59-3.89-4.31-9.64-8.99-14.51-3.54,12.13-.97,24.25-4.08,35.51Z"/><path d="m128.51,106.17c-7.08-4.25-4.2-11.34-5.36-17.01-1.68-8.21-1.46-16.81-3.07-25.05-1.1-5.61-.02-11.02-.7-16.34,1.26-1.41,2.3-2.58,3.24-3.63,7.39-1.2,13.62,1.88,20.21,4.13,6.05,2.07,10.8,5.6,15.93,9.09,10.03,6.83,11.73,29.52,2.66,38.54-3.17,3.16-7.38,6.1-12.08,6.43-6.7.46-13.25,1.06-19.42,3.94-.49.23-1.23-.1-1.41-.12Zm5.15-14.06c5.04,1.94,9.21.5,12.98-.38,4.26-.99,8.78-3,9.89-8.62,3.39-17.19-12.71-27.54-26.83-27.13.39,12.22,2.21,24.23,3.97,36.13Z"/><path d="m262.83,75.08c-7.45,7.4-17.19,2.28-25.57,6.07-.38,5.67-.89,11.89,5.93,16.39,9.45.08,19.66.16,29.75.25,2.5,2.99,3.64,5.8-.42,9.04-10.69.32-21.98,1.01-33.05-1.02-7.84-1.44-11.17-7.54-12.48-15.12-2.18-12.6-.6-24.99,1.39-37.42.74-4.65,4.29-7.12,7.91-7.1,11.25.07,22.06-4.35,33.46-2.77,1.26.94,1.57,2.48,1.97,3.73-1.53,5.27-5.36,6.23-10.08,6.7-8.12.81-16.47.79-24.14,4.38-.03,3.89-.06,7.5-.09,11.41,7.4.69,14.59-1.72,22.15-.38.81,1.88,4.9,2.14,3.28,5.85Z"/><path d="m210.73,85.02c2.7-11.57-2.5-23.45,1.11-35.14,2.64.02,4.67.04,7.47.06,3.12,15.26,2.32,30.94,2.38,46.41-3.4,4.34-7.46,4.05-11.52,1.83-8.52-4.63-15.81-11.01-23.27-17.09-1.59-1.29-2.85-2.34-5.16-1.66.68,4.67,1.4,9.35,2.02,14.04.4,2.97-.38,5.69-3.42,6.65-3.19,1-5.41-1.11-5.99-3.89-2.46-11.81-4.53-23.68-4.15-35.84.06-2.08,1.28-3.09,2.48-4.1,4.14-.87,6.74.38,9.13,4.01,6.46,9.79,16.6,15.88,25.16,23.56.93.83,2.26,1.91,3.77,1.15Z"/><path d="m320.42,96.53c1.09-6.21,4.71-7.92,10.19-4.92,5.71,3.13,11.69,4.35,18.82,3.83.77-.98,1.86-2.36,3.11-3.94-.02-1.26-.05-2.85-.07-4.47-8.57-6.44-18.73-9.49-28.35-14.78-1.37-3.3-5.5-5.25-6.5-9.88-2.05-9.53,9.12-18.24,16.16-19.23,7.75-1.1,15.32.39,22.41,3.83,3.96,1.92,7.63,9.98,6.48,14.14-.98,3.55-3.66,4.01-7.11,3.55-1.26-1.1-3.23-2.1-4.01-3.69-.86-1.76-1.72-3.43-3.13-5.18-6.11.04-12.72-2.52-18.3,2.25.2,3.09,1.79,4.36,3.75,5.42,7.76,4.2,15.66,8.15,23.19,12.73,6.47,3.94,8.71,10.1,6.84,16.16-3.28,10.62-8.11,14.76-16.78,15.1-10.59.41-19.29-3.33-26.68-10.92Z"/><path d="m92.9,47.22c4.11-.4,7.78-.59,9.38,3.83,5.55,15.25,11.03,30.52,16.62,45.76.53,1.46.63,2.7-.06,4.37-1.54.55-3.26,1.17-5,1.79-2.09-1.42-4.29-2.76-4.86-5.12-2.1-8.77-9.63-8.88-16.22-10.5-7.72-1.9-12.32,1.91-15.51,8.46-.8,1.65-2.04,3.1-3.18,4.57-3.05,3.94-6.09,4.22-9.92-1.81,9.71-16.33,18.11-34.54,28.75-51.35Zm-1.63,30.22c3.42.03,6.22.05,9.74.08-1.69-4.69-3.22-8.91-4.94-13.67-3.49,3.5-4.33,7.5-6.39,10.8.62,1.08,1.14,1.99,1.59,2.78Z"/><path d="m312.13,66.04c-7.2,1.38-6.78-6.25-10.64-8.5-5.7.31-11.91-3.71-16.91,2.81,4.13,4.47,9.5,6.91,14.65,9.69,3.02,1.62,6.12,3.13,8.98,5.01,6.51,4.27,8.77,10.2,6.75,16.96-2.11,7.05-8.22,11.21-15.63,11.58-7.99.4-14.25-3.33-20.47-7.4-2.13-1.4-2.69-3.66-1.64-5.88,1.12-2.36,3.42-2.44,5.78-2.16,3.9.47,6.84,3.28,10.68,4.1,1.88.4,3.7.5,5.55.7,2.97.32,4.54-1.34,5.58-3.91,1.09-2.7-.74-4.06-2.36-5.45-5.85-5.06-13.88-6.14-19.92-10.87-3.28-2.57-7.02-4.58-7.81-9.4-.71-4.35.56-8.12,3.4-10.9,6.88-6.74,23.55-7.67,31.56-2.21,4.11,2.8,5.53,11.55,2.44,15.85Z"/><path d="m390.76,50.26h10.12l23.38,30.73v-30.73h10.84v49.9h-9.34l-24.17-31.72v31.72h-10.84v-49.9Z" fill="#fff"/><path d="m443.51,50.26h37.57v9.77h-26.73v10.12h23.53v9.77h-23.53v10.48h27.09v9.77h-37.93v-49.9Z" fill="#fff"/><path d="m504.82,49.91h10.12l21.39,50.26h-11.48l-4.56-11.19h-21.1l-4.56,11.19h-11.19l21.39-50.26Zm11.55,29.37l-6.63-16.18-6.63,16.18h13.26Z" fill="#fff"/><path d="m540.47,50.26h22.81c6.32,0,11.17,1.69,14.54,5.06,2.85,2.85,4.28,6.65,4.28,11.41v.14c0,4.04-.99,7.33-2.96,9.87-1.97,2.54-4.55,4.41-7.73,5.6l12.19,17.82h-12.83l-10.69-15.97h-8.63v15.97h-10.98v-49.9Zm22.1,24.24c2.71,0,4.79-.64,6.24-1.92,1.45-1.28,2.17-2.99,2.17-5.13v-.14c0-2.38-.76-4.16-2.28-5.35-1.52-1.19-3.64-1.78-6.35-1.78h-10.91v14.33h11.12Z" fill="#fff"/><path d="m620.31,80.49l-19.18-30.23h12.83l11.91,20.03,12.12-20.03h12.48l-19.18,30.01v19.89h-10.98v-19.68Z" fill="#fff"/><path d="m677.98,101.02c-3.85,0-7.39-.68-10.62-2.03-3.23-1.35-6.02-3.18-8.38-5.49-2.35-2.3-4.18-5.01-5.49-8.13-1.31-3.11-1.96-6.45-1.96-10.02v-.14c0-3.56.67-6.9,2-10.02,1.33-3.11,3.17-5.85,5.53-8.2s5.16-4.21,8.41-5.56c3.25-1.35,6.81-2.03,10.66-2.03s7.39.68,10.62,2.03c3.23,1.35,6.02,3.18,8.38,5.49,2.35,2.31,4.18,5.01,5.49,8.13,1.31,3.11,1.96,6.45,1.96,10.02v.14c0,3.56-.67,6.9-2,10.02-1.33,3.11-3.17,5.85-5.53,8.2s-5.16,4.21-8.41,5.56c-3.26,1.35-6.81,2.03-10.66,2.03Zm.14-10.12c2.19,0,4.21-.4,6.06-1.21,1.85-.81,3.43-1.92,4.74-3.35,1.31-1.43,2.33-3.08,3.07-4.96.74-1.88,1.11-3.89,1.11-6.02v-.14c0-2.14-.37-4.16-1.11-6.06-.74-1.9-1.78-3.56-3.14-4.99s-2.96-2.55-4.81-3.39c-1.85-.83-3.88-1.25-6.06-1.25s-4.27.4-6.09,1.21c-1.83.81-3.4,1.92-4.71,3.35-1.31,1.43-2.33,3.08-3.07,4.95-.74,1.88-1.11,3.89-1.11,6.02v.14c0,2.14.37,4.16,1.11,6.06.74,1.9,1.78,3.56,3.14,4.99s2.95,2.56,4.78,3.39c1.83.83,3.86,1.25,6.09,1.25Z" fill="#fff"/><path d="m731.59,100.95c-6.7,0-11.98-1.85-15.83-5.56s-5.77-9.24-5.77-16.61v-28.52h10.98v28.23c0,4.09.95,7.17,2.85,9.23,1.9,2.07,4.54,3.1,7.91,3.1s6.01-1,7.91-2.99c1.9-2,2.85-4.99,2.85-8.98v-28.59h10.98v28.16c0,3.8-.51,7.11-1.53,9.91-1.02,2.8-2.48,5.15-4.38,7.02-1.9,1.88-4.21,3.28-6.92,4.21-2.71.93-5.73,1.39-9.05,1.39Z" fill="#fff"/><path d="m826.88,31.37c1.23-18.29-14.95-32.66-32.99-29.4-15.98,2.89-26.3,19.22-21.73,34.79,2.74,9.34,5.9,18.56,8.93,27.81,1.72,5.26,3.57,10.49,5.44,15.96,2.72-2.59,5.31-4.99,7.83-7.45,8.46-8.3,16.96-16.56,25.32-24.96,4.56-4.58,6.77-10.37,7.2-16.74Zm-30.69,10.04c-6.65-1.62-10.72-8.25-9.11-14.85,1.62-6.65,8.23-10.66,14.88-9.04,6.63,1.62,10.63,8.26,8.98,14.91-1.61,6.5-8.28,10.56-14.75,8.98Z"/><path d="m810.94,32.43c-1.61,6.5-8.28,10.56-14.75,8.98-6.65-1.62-10.72-8.25-9.11-14.85,1.62-6.65,8.23-10.66,14.88-9.04,6.63,1.62,10.63,8.26,8.98,14.91Z"/><path d="m786.69,19.28s0,0,0,0c-.08.42-.14,1.22.38,1.88.28.35.63.53.85.62l11.31,2.76-1.25,5.1-12.72-3.11c-.32-.13-.77-.35-1.24-.72-1-.79-1.42-1.74-1.68-2.32-1.07-2.46-.54-4.91-.46-5.27.08-.33.71-2.92,2.9-4.7.49-.4,1.31-1.05,2.56-1.29.58-.11,1.09-.1,1.43-.07l12.72,3.11-1.25,5.1-11.31-2.76c-.24-.02-.63-.02-1.04.16-.77.34-1.08,1.09-1.2,1.5Z" fill="#fff"/><path d="m814.65,26.1s0,0,0,0c-.12.41-.44,1.15-1.2,1.49-.41.18-.8.18-1.04.16l-11.31-2.76-1.25,5.1,12.72,3.11c.35.03.85.04,1.43-.07,1.25-.24,2.07-.89,2.56-1.29,2.09-1.69,2.74-4.11,2.84-4.47.09-.33.72-2.92-.4-5.51-.25-.58-.68-1.54-1.68-2.32-.47-.37-.92-.59-1.24-.72l-12.72-3.11-1.25,5.1,11.31,2.76c.22.09.57.27.85.62.52.66.46,1.46.38,1.88Z" fill="#fff"/><path d="m783.43,32.63s0,0,0,0c-.08.42-.14,1.22.38,1.88.28.35.63.53.85.62l11.31,2.76-1.25,5.1-12.72-3.11c-.32-.13-.77-.35-1.24-.72-1-.79-1.42-1.74-1.68-2.32-1.07-2.46-.54-4.91-.46-5.27.08-.33.71-2.92,2.9-4.7.49-.4,1.31-1.05,2.56-1.29.58-.11,1.09-.1,1.43-.07l12.72,3.11-1.25,5.1-11.31-2.76c-.24-.02-.63-.02-1.04.16-.77.34-1.08,1.09-1.2,1.5Z" fill="#fff"/><path d="m811.39,39.45s0,0,0,0c-.12.41-.44,1.15-1.2,1.49-.41.18-.8.18-1.04.16l-11.31-2.76-1.25,5.1,12.72,3.11c.35.03.85.04,1.43-.07,1.25-.24,2.07-.89,2.56-1.29,2.09-1.69,2.74-4.11,2.84-4.47.09-.33.72-2.92-.4-5.51-.25-.58-.68-1.54-1.68-2.32-.47-.37-.92-.59-1.24-.72l-12.72-3.11-1.25,5.1,11.31,2.76c.22.09.57.27.85.62.52.66.46,1.46.38,1.88Z" fill="#fff"/><rect x="777.38" y="27.38" width="43.33" height="3.96" rx=".9" ry=".9" transform="translate(29.78 -188.71) rotate(13.72)" fill="#ff8d00"/><circle cx="784.13" cy="95.39" r="7.51"/></svg>