<?xml version="1.0" encoding="UTF-8"?><svg id="Layer_1" xmlns="http://www.w3.org/2000/svg" viewBox="0 0 7817.56 326.05"><path d="m55.05,63.36h43.29v196.8h-43.29V63.36Z" fill="#fff"/><path d="m241.45,99.75h-62.57v-36.11h167.87v36.38h-62.03v160.14h-43.27V99.75Z" fill="#fff"/><path d="m458.49,71.36c-6.35,23.15-18.2,52.64-25.92,65.32l-15.42,1.93c6.06-16.26,13.22-44.93,16.25-64.77l25.09-2.48Z" fill="#fff"/><path d="m568.51,201.73c4.42,25.91,27.58,29.49,43.56,29.49,15.15,0,38.31-4.41,38.31-24.53,0-41.9-117.15-14.89-117.15-88.48,0-40.51,38.04-59.53,73.61-59.53,41.07,0,78.82,17.91,78.82,63.39l-41.9-6.06c-5.23-22.88-25.36-23.71-38.85-23.71s-29.78,5.79-29.78,22.33c0,14.61,9.38,17.92,58.71,29.77,14.61,3.58,58.44,12.68,58.44,57.33,0,36.1-28.12,63.12-81.87,63.12-44.1,0-83.78-21.5-83.78-70.01l41.88,6.89Z" fill="#fff"/><path d="m945.76,124.28v136.16h-37.77V62.81h49.62l87.93,122.93V62.81h36.65v197.63h-36.65l-99.78-136.16Z" fill="#fff"/><path d="m1259.01,262.64c-56.24,0-101.71-45.48-101.71-101.7s45.47-101.99,101.71-101.99,101.98,45.48,101.98,101.99-46.03,101.7-101.98,101.7Zm-60.08-101.7c0,32.79,27.27,60.08,60.08,60.08s59.54-27.29,59.54-60.08-26.75-60.37-59.54-60.37-60.08,27.57-60.08,60.37Z" fill="#fff"/><path d="m1491.22,99.75h-62.57v-36.11h167.87v36.38h-62.03v160.14h-43.27V99.75Z" fill="#fff"/><path d="m1930.51,198.14c0,25.36-6.89,66.71-65.6,66.71-22.04,0-43-8-55.12-25.91-6.62-8.82-9.65-22.88-9.65-28.39l39.97-6.62c0,14.61,4.13,24.53,24.24,24.53,22.89,0,22.89-18.19,22.89-32.24V63.36h43.27v134.78Z" fill="#fff"/><path d="m2190.8,185.74c0,53.2-31.42,79.11-84.07,79.11s-83.78-25.36-83.78-79.11V63.36h43.27v122.38c0,21.5,5.5,42.72,40.51,42.72,30.88,0,40.8-13.23,40.8-42.72V63.36h43.27v122.38Z" fill="#fff"/><path d="m2312.23,201.73c4.4,25.91,27.56,29.49,43.54,29.49,15.15,0,38.31-4.41,38.31-24.53,0-41.9-117.13-14.89-117.13-88.48,0-40.51,38.02-59.53,73.59-59.53,41.05,0,78.82,17.91,78.82,63.39l-41.9-6.06c-5.23-22.88-25.36-23.71-38.85-23.71s-29.78,5.79-29.78,22.33c0,14.61,9.38,17.92,58.71,29.77,14.61,3.58,58.44,12.68,58.44,57.33,0,36.1-28.12,63.12-81.87,63.12-44.1,0-83.78-21.5-83.78-70.01l41.9,6.89Z" fill="#fff"/><path d="m2566.73,99.75h-62.57v-36.11h167.87v36.38h-62.03v160.14h-43.27V99.75Z" fill="#fff"/><path d="m2872.06,260.16l89.3-196.52h43.56l87.93,196.52h-41.9l-19.3-43.55h-99.49l-20.67,43.55h-39.43Zm111.63-159.59l-33.08,76.08h65.33l-31.98-76.08h-.27Z" fill="#fff"/><path d="m3302.79,63.36h92.6c37.5,0,62.86,12.13,62.86,48.79,0,19.84-9.11,32.52-26.75,41.07,24.26,6.89,36.11,25.36,36.11,49.89,0,39.96-33.89,57.05-69.46,57.05h-95.36V63.36Zm43.27,79.66h43.83c15.44,0,26.46-6.89,26.46-23.43,0-18.47-14.34-22.6-29.78-22.6h-40.51v46.03Zm0,83.51h46.3c16.81,0,31.98-5.51,31.98-25.91s-12.41-28.11-31.15-28.11h-47.13v54.02Z" fill="#fff"/><path d="m3721.05,185.74c0,53.2-31.42,79.11-84.07,79.11s-83.78-25.36-83.78-79.11V63.36h43.27v122.38c0,21.5,5.5,42.72,40.51,42.72,30.88,0,40.8-13.23,40.8-42.72V63.36h43.27v122.38Z" fill="#fff"/><path d="m3925.14,187.4l55.12,73.04h-52.92l-49.62-70.84h-21.21v70.84h-43.56V63.36h88.76c49.62,0,68.63,31.15,68.63,63.12,0,26.74-14.05,53.75-46.86,60.92h1.66Zm-68.63-90.41v59.26h33.62c20.67,0,37.77-4.69,37.77-29.77s-17.1-29.49-37.77-29.49h-33.62Z" fill="#fff"/><path d="m4242.25,210.55c-16.81,31.69-50.99,52.91-89.3,52.91-55.95,0-101.71-45.75-101.71-101.97s45.76-101.71,101.71-101.71c38.04,0,71.39,21.22,89.03,51.82-17.37,8.82-18.74,9.64-38.04,19.29-10.19-17.64-28.95-28.94-50.99-28.94-33.08,0-59.54,26.46-59.54,59.54s26.46,59.53,59.54,59.53c22.04,0,44.1-11.02,52.09-29.77h-4.4c-8.82,0-28.95.28-39.97.28-5.25,0-7.72,0-7.72-.28v-36.38c27.83,0,66.7.28,100.61.28,0,5.79-1.12,42.17-11.31,55.4Z" fill="#fff"/><path d="m4368.62,223.5h111.07v36.38h-152.97V62.54h143.61v36.38h-101.71v44.38h89.86v38.31h-89.86v41.89Z" fill="#fff"/><path d="m4678.26,187.4l55.12,73.04h-52.92l-49.62-70.84h-21.21v70.84h-43.56V63.36h88.76c49.62,0,68.63,31.15,68.63,63.12,0,26.74-14.05,53.75-46.86,60.92h1.66Zm-68.63-90.41v59.26h33.62c20.67,0,37.77-4.69,37.77-29.77s-17.1-29.49-37.77-29.49h-33.62Z" fill="#fff"/><path d="m4815.67,245.83c0-10.2,6.89-17.37,16.52-17.37s16.27,7.17,16.27,17.37-6.33,17.36-16.54,17.36c-9.65,0-16.25-7.44-16.25-17.36Z" fill="#fff"/><path d="m5071.29,63.36h43.29v196.8h-43.29V63.36Z" fill="#fff"/><path d="m5257.68,99.75h-62.57v-36.11h167.87v36.38h-62.03v160.14h-43.27V99.75Z" fill="#fff"/><path d="m5474.74,71.36c-6.35,23.15-18.2,52.64-25.92,65.32l-15.42,1.93c6.06-16.26,13.22-44.93,16.25-64.77l25.09-2.48Z" fill="#fff"/><path d="m5584.77,201.73c4.4,25.91,27.56,29.49,43.54,29.49,15.15,0,38.31-4.41,38.31-24.53,0-41.9-117.13-14.89-117.13-88.48,0-40.51,38.02-59.53,73.59-59.53,41.05,0,78.82,17.91,78.82,63.39l-41.9-6.06c-5.23-22.88-25.36-23.71-38.85-23.71s-29.78,5.79-29.78,22.33c0,14.61,9.38,17.92,58.71,29.77,14.61,3.58,58.44,12.68,58.44,57.33,0,36.1-28.12,63.12-81.87,63.12-44.1,0-83.78-21.5-83.78-70.01l41.9,6.89Z" fill="#fff"/><path d="m7729.72,245.83c0-10.2,6.89-17.37,16.52-17.37s16.27,7.17,16.27,17.37-6.33,17.36-16.54,17.36c-9.65,0-16.25-7.44-16.25-17.36Z" fill="#fff"/><path d="m5954.82,298.73c-8.87-.11-15.28-.19-21.55-.27-5.5-4.62-8.75-10.31-8.81-16.91-.47-52.22,1.77-104.3,8.65-156.13,1.01-7.6.31-15.41.66-23.11,1.18-26.16,13.45-34.09,39.88-25.89,19.54,39.41,39.06,78.83,60.21,121.52,21.38-31.9,30.56-64.19,45.51-93.58,9.75-19.16,20.32-28.9,45.55-22.31,10.97,58.55,22.34,118.32,7.2,179.8-12.05-.15-19.12-.24-27.37-.34-10.11-27.17-2.02-55.79-5.03-84.09-8-3.11-11.05-.15-15.05,7.77-11.99,23.71-19.3,49.84-37.26,71.95-27.46,4.76-30.62-22.32-43.58-36.48-13.31-14.55-15.92-35.98-33.27-54.2-13.39,45.17-3.99,90.35-15.75,132.28Z" fill="#ff8d00"/><path d="m6527.69,263.46c-26.33-15.96-15.47-42.33-19.7-63.46-6.12-30.64-5.17-62.67-11.06-93.38-4.01-20.93.08-41.05-2.35-60.89,4.72-5.24,8.62-9.57,12.12-13.46,27.57-4.37,50.72,7.21,75.25,15.71,22.51,7.8,40.16,21.02,59.22,34.11,37.29,25.61,43.27,110.19,9.32,143.68-11.88,11.72-27.59,22.64-45.12,23.78-24.98,1.63-49.4,3.73-72.43,14.4-1.82.84-4.6-.4-5.27-.48Zm19.43-52.32c18.75,7.32,34.33,1.99,48.37-1.21,15.9-3.63,32.77-11.03,36.98-31.96,12.89-64.02-46.93-102.83-99.57-101.53,1.28,45.53,7.88,90.35,14.22,134.7Z" fill="#ff8d00"/><path d="m7156.54,172.75c-27.87,27.45-64.08,8.22-95.39,22.23-1.5,21.14-3.5,44.28,21.83,61.15,35.23.44,73.27.91,110.85,1.38,9.26,11.18,13.49,21.66-1.69,33.68-39.85,1.01-81.91,3.43-123.15-4.32-29.19-5.48-41.52-28.29-46.28-56.53-7.92-47.01-1.85-93.15,5.76-139.41,2.85-17.31,16.09-26.47,29.58-26.32,41.92.45,82.28-15.87,124.72-9.82,4.69,3.53,5.81,9.26,7.3,13.92-5.79,19.62-20.08,23.13-37.66,24.81-30.26,2.89-61.37,2.68-90.02,15.94-.18,14.48-.35,27.95-.53,42.52,27.55,2.68,54.4-6.17,82.56-1.07,2.99,7.01,18.22,8.06,12.13,21.85Z" fill="#ff8d00"/><path d="m6901.57,210.7c10.25-43.07-8.97-87.43,4.67-130.92,9.86.12,17.39.22,27.83.35,11.4,56.91,8.16,115.35,8.16,172.99-12.75,16.11-27.85,14.96-42.96,6.66-31.66-17.4-58.74-41.26-86.46-64.04-5.9-4.84-10.6-8.76-19.19-6.28,2.45,17.42,5.06,34.87,7.32,52.36,1.43,11.07-1.49,21.19-12.84,24.72-11.89,3.69-20.16-4.21-22.27-14.58-8.97-44.04-16.52-88.32-14.93-133.62.27-7.74,4.83-11.5,9.31-15.24,15.45-3.19,25.1,1.53,33.96,15.09,23.93,36.6,61.62,59.43,93.4,88.2,3.45,3.12,8.4,7.16,14.01,4.33Z" fill="#ff8d00"/><path d="m7509.51,252.62c4.2-20.49,16.36-25.81,34.25-15.34,18.63,10.9,38.34,15.52,62.04,14.45,2.65-3.16,6.4-7.64,10.69-12.76.05-4.2.12-9.45.18-14.83-27.82-22.15-61.2-33.23-92.62-51.66-4.22-11.08-17.75-17.93-20.62-33.36-5.9-31.78,31.97-59.62,55.38-62.25,25.81-2.9,50.76,2.74,73.93,14.81,12.94,6.74,24.34,33.82,20.16,47.49-3.58,11.69-12.5,12.95-23.9,11.08-4.06-3.75-10.52-7.27-12.96-12.62-2.69-5.91-5.39-11.53-9.9-17.47-20.27-.44-41.93-9.55-60.88,5.74.38,10.26,5.52,14.64,11.92,18.34,25.33,14.64,51.17,28.5,75.68,44.4,21.07,13.66,27.93,34.3,21.15,54.22-11.89,34.91-28.29,48.18-57.05,48.48-35.15.37-63.66-12.87-87.45-38.71Z" fill="#ff8d00"/><path d="m6319.25,68.81c15.31-1.44,28.99-2.07,34.91,14.4,20.46,56.91,40.63,113.92,61.24,170.77,1.97,5.44,2.31,10.08-.3,16.3-5.75,2.03-12.16,4.29-18.67,6.59-7.78-5.32-15.96-10.35-18.03-19.16-7.69-32.71-35.75-33.22-60.3-39.37-28.75-7.2-45.95,6.94-57.94,31.29-3.02,6.14-7.66,11.54-11.91,16.99-11.43,14.65-22.75,15.63-36.94-6.88,36.45-60.71,68-128.42,107.93-190.93Zm-6.52,112.59c12.76.16,23.18.29,36.28.45-6.24-17.51-11.85-33.25-18.18-51-13.05,12.98-16.26,27.9-23.98,40.16,2.29,4.05,4.21,7.43,5.88,10.39Z" fill="#ff8d00"/><path d="m7416.73,148.97c-26.86,5.03-25.18-23.41-39.5-31.86-21.23,1.07-44.34-14.02-63.06,10.21,15.3,16.7,35.29,25.91,54.45,36.32,11.22,6.09,22.76,11.76,33.37,18.79,24.18,16.02,32.52,38.15,24.89,63.29-7.97,26.24-30.81,41.66-58.41,42.93-29.78,1.37-53.05-12.62-76.17-27.89-7.93-5.24-9.99-13.66-6.01-21.94,4.23-8.79,12.77-9.05,21.56-7.96,14.51,1.8,25.44,12.32,39.73,15.44,6.98,1.53,13.79,1.93,20.68,2.71,11.07,1.24,16.96-4.92,20.86-14.49,4.09-10.04-2.71-15.13-8.71-20.36-21.71-18.94-51.62-23.1-74.05-40.82-12.17-9.61-26.09-17.18-28.95-35.15-2.58-16.21,2.22-30.27,12.83-40.57,25.72-24.99,87.88-28.21,117.64-7.75,15.26,10.49,20.44,43.14,8.85,59.11Z" fill="#ff8d00"/></svg>