<?xml version="1.0" encoding="UTF-8"?><svg id="Layer_2" xmlns="http://www.w3.org/2000/svg" viewBox="0 0 56 77"><path d="m30.86,30.28c0-.62.16-1.21.51-1.74.48-.74,1.18-1.13,2.04-1.2,1.05-.08,2.1-.1,3.14-.14.37-.01.36,0,.37-.38.03-1.04.08-2.07.1-3.11.01-.59,0-1.17,0-1.76-1.65-.24-3.29-.31-4.94-.31-.98,0-1.95.14-2.88.45-1.37.44-2.48,1.25-3.33,2.41-.74,1.01-1.17,2.16-1.34,3.38-.1.7-.15,1.42-.16,2.13-.03,1.42-.04,2.84-.04,4.26,0,.18-.08.19-.22.19-1.68,0-3.37-.01-5.05-.02-.02,0-.04,0-.08.02v6.02c.22-.01.42-.03.62-.03,1.54,0,3.09,0,4.63,0,.19,0,.21.1.21.25,0,.77,0,1.54,0,2.32,0,4.05,0,8.11,0,12.16,0,.1,0,.16-.01.2h6.45v-14.85h4.87c.41-2.03.82-4.03,1.24-6.08h-6.12v-.22c0-1.31,0-2.63,0-3.94Z" fill="#fff"/></svg>