<?xml version="1.0" encoding="UTF-8"?><svg id="Layer_1" xmlns="http://www.w3.org/2000/svg" viewBox="0 0 3236.68 629.53"><path d="m332.17,20.84h104.74c42.39,0,71.07,14.15,71.07,56.9,0,23.15-10.29,37.93-30.24,47.9,27.44,8.04,40.84,29.57,40.84,58.19,0,46.62-38.34,66.55-78.56,66.55h-107.86V20.84Zm48.94,92.91h49.57c17.45,0,29.93-8.04,29.93-27.32,0-21.54-16.21-26.37-33.67-26.37h-45.83v53.69Zm0,97.41h52.37c19.02,0,36.16-6.43,36.16-30.22s-14.03-32.79-35.23-32.79h-53.31v63.01Z"/><path d="m740.59,163.58c0,62.05-35.54,92.27-95.08,92.27s-94.77-29.57-94.77-92.27V20.84h48.94v142.74c0,25.08,6.24,49.83,45.83,49.83,34.91,0,46.14-15.43,46.14-49.83V20.84h48.94v142.74Z"/><path d="m909.6,165.5l62.35,85.19h-59.85l-56.11-82.62h-24v82.62h-49.25V20.84h100.38c56.11,0,77.62,36.33,77.62,73.62,0,31.19-15.9,62.69-52.99,71.05h1.87Zm-77.62-105.45v69.12h38.03c23.38,0,42.71-5.46,42.71-34.72s-19.33-34.4-42.71-34.4h-38.03Z"/><path d="m1205.79,192.51c-19.02,36.97-57.67,61.73-101.01,61.73-63.28,0-115.03-53.37-115.03-118.95s51.75-118.63,115.03-118.63c43.02,0,80.74,24.76,100.69,60.44-19.64,10.29-21.2,11.25-43.02,22.5-11.54-20.58-32.74-33.75-57.67-33.75-37.41,0-67.33,30.86-67.33,69.44s29.93,69.44,67.33,69.44c24.94,0,49.88-12.86,58.92-34.72h-4.99c-9.98,0-32.73.32-45.2.32-5.92,0-8.73,0-8.73-.32v-42.44c31.49,0,75.44.32,113.78.32,0,6.75-1.24,49.19-12.78,64.62Z"/><path d="m1286.27,158.76v48.87h125.63v42.44h-173.01V19.87h162.41v42.44h-115.03v51.76h101.63v44.69h-101.63Z"/><path d="m1573.42,165.5l62.35,85.19h-59.85l-56.11-82.62h-24v82.62h-49.26V20.84h100.39c56.11,0,77.62,36.33,77.62,73.62,0,31.19-15.9,62.69-52.99,71.05h1.86Zm-77.62-105.45v69.12h38.03c23.38,0,42.71-5.46,42.71-34.72s-19.33-34.4-42.71-34.4h-38.03Z"/><path d="m1666.99,248.77V19.87h48.01v186.46h114.1v42.44h-162.11Z"/><path d="m1856.56,20.84h48.95v229.54h-48.95V20.84Z"/><path d="m2049.54,251.02c-62.34,0-112.84-52.08-112.84-116.38s50.5-116.38,112.84-116.38c42.72,0,78.87,24.43,97.88,59.48-19.01,10.29-20.57,11.25-41.76,21.86-10.92-19.61-32.11-33.11-56.12-33.11-36.46,0-66.09,30.86-66.09,68.16s29.62,68.16,66.09,68.16c24.94,0,46.77-13.82,57.99-35.69,21.2,11.25,21.81,12.54,41.76,21.86-19.01,36.97-55.79,62.05-99.76,62.05Z"/><path d="m2179.59,20.84h48.95v229.54h-48.95V20.84Z"/><path d="m2370.7,253.27c-63.59,0-115.03-53.05-115.03-118.63s51.44-118.95,115.03-118.95,115.35,53.05,115.35,118.95-52.06,118.63-115.35,118.63Zm-67.96-118.63c0,38.26,30.87,70.09,67.96,70.09s67.34-31.82,67.34-70.09-30.24-70.41-67.34-70.41-67.96,32.15-67.96,70.41Z"/><path d="m2703.06,163.58c0,62.05-35.53,92.27-95.08,92.27s-94.76-29.57-94.76-92.27V20.84h48.95v142.74c0,25.08,6.23,49.83,45.82,49.83,34.92,0,46.14-15.43,46.14-49.83V20.84h48.94v142.74Z"/><path d="m2778.55,182.22c4.99,30.22,31.18,34.4,49.26,34.4,17.14,0,43.33-5.14,43.33-28.61,0-48.87-132.5-17.36-132.5-103.2,0-47.26,43.02-69.44,83.24-69.44,46.45,0,89.16,20.9,89.16,73.94l-47.39-7.07c-5.91-26.68-28.68-27.65-43.95-27.65s-33.66,6.75-33.66,26.04c0,17.04,10.6,20.9,66.4,34.73,16.51,4.18,66.09,14.78,66.09,66.87,0,42.12-31.8,73.62-92.58,73.62-49.88,0-94.77-25.07-94.77-81.66l47.38,8.04Z"/><path d="m770.74,614.16h-21.87c-5.64-4.62-9.01-10.36-9.16-17.05-1.13-53,.48-105.9,6.81-158.6.93-7.73.12-15.65.37-23.47.87-26.57,13.23-34.78,40.16-26.78,20.33,39.76,40.65,79.53,62.66,122.6,21.3-32.65,30.21-65.54,45.02-95.57,9.65-19.57,20.26-29.59,45.96-23.23,11.88,59.3,24.17,119.83,9.58,182.43h-27.79c-10.61-27.46-2.75-56.61-6.17-85.3-8.16-3.05-11.22-.01-15.18,8.07-11.87,24.22-18.96,50.84-36.92,73.51-27.81,5.18-31.36-22.27-44.7-36.49-13.7-14.6-16.62-36.33-34.46-54.6-13.02,46.02-2.91,91.77-14.32,134.48Z"/><path d="m1351.84,571.13c-26.93-15.87-16.24-42.77-20.8-64.17-6.6-31.02-6.04-63.56-12.41-94.66-4.34-21.2-.44-41.68-3.15-61.78,4.73-5.38,8.63-9.83,12.14-13.82,27.93-4.78,51.57,6.68,76.59,15,22.95,7.63,41.03,20.83,60.55,33.88,38.17,25.52,45.31,111.31,11.28,145.74-11.91,12.05-27.72,23.33-45.5,24.71-25.34,1.97-50.1,4.41-73.34,15.53-1.83.88-4.67-.35-5.35-.42Zm19.06-53.35c19.12,7.19,34.87,1.59,49.08-1.84,16.1-3.88,33.12-11.61,37.14-32.91,12.28-65.16-48.94-103.8-102.36-101.81,1.87,46.2,9.14,91.61,16.14,136.56Z"/><path d="m1989.06,471.12c-27.95,28.21-64.94,9.15-96.55,23.77-1.25,21.48-3,45,22.93,61.8h112.54c9.54,11.23,13.96,21.82-1.3,34.21-40.44,1.53-83.11,4.52-125.07-2.83-29.7-5.2-42.51-28.19-47.7-56.8-8.63-47.62-3.05-94.53,4.09-141.59,2.67-17.61,15.99-27.07,29.69-27.1,42.56-.07,83.32-17.14,126.49-11.55,4.81,3.52,6.02,9.33,7.58,14.03-5.63,19.99-20.09,23.74-37.92,25.66-30.68,3.32-62.27,3.5-91.18,17.32v43.17c28,2.38,55.15-6.95,83.79-2.13,3.12,7.08,18.59,7.95,12.59,22.03Z"/><path d="m1730.71,512.85c9.86-43.85-10.21-88.64,3.09-132.96h28.26c12.29,57.62,9.74,116.99,10.47,175.5-12.74,16.51-28.08,15.54-43.53,7.3-32.36-17.27-60.14-41.14-88.58-63.92-6.05-4.84-10.87-8.75-19.56-6.13,2.71,17.65,5.58,35.33,8.09,53.06,1.59,11.22-1.24,21.53-12.73,25.25-12.02,3.9-20.52-4.02-22.79-14.52-9.66-44.59-17.88-89.45-16.84-135.46.18-7.86,4.76-11.73,9.25-15.59,15.64-3.43,25.5,1.24,34.67,14.89,24.75,36.85,63.31,59.56,95.92,88.36,3.54,3.13,8.62,7.16,14.28,4.22Z"/><path d="m2348.38,547.74c4.01-20.85,16.28-26.4,34.57-16.01,19.05,10.83,39.12,15.27,63.17,13.89,2.65-3.25,6.4-7.84,10.69-13.09v-15.06c-28.52-22.14-62.54-32.96-94.67-51.28-4.42-11.2-18.25-17.98-21.35-33.61-6.39-32.18,31.7-60.93,55.43-63.89,26.17-3.27,51.56,2.14,75.24,14.1,13.22,6.68,25.14,34.02,21.06,47.96-3.48,11.91-12.53,13.31-24.12,11.55-4.17-3.76-10.77-7.25-13.31-12.65-2.8-5.96-5.61-11.64-10.27-17.61-20.58-.19-42.68-9.17-61.73,6.6.51,10.41,5.79,14.79,12.33,18.46,25.89,14.54,52.3,28.29,77.39,44.12,21.56,13.6,28.78,34.47,22.15,54.77-11.63,35.58-28.11,49.26-57.3,49.93-35.68.82-64.78-12.26-89.26-38.2Z"/><path d="m1137.78,376.16c15.52-1.65,29.4-2.47,35.62,14.18,21.49,57.51,42.68,115.13,64.32,172.58,2.07,5.49,2.47,10.2-.09,16.55-5.81,2.13-12.29,4.51-18.86,6.93-7.96-5.3-16.33-10.31-18.54-19.22-8.21-33.11-36.71-33.27-61.71-39.21-29.27-6.94-46.56,7.62-58.42,32.49-2.99,6.27-7.63,11.81-11.88,17.4-11.42,15.01-22.9,16.16-37.59-6.52,36.23-62.09,67.41-131.22,107.16-195.18Zm-5.2,114.38h36.84c-6.56-17.7-12.45-33.6-19.1-51.54-13.09,13.34-16.16,28.53-23.84,41.07,2.38,4.08,4.36,7.49,6.1,10.48Z"/><path d="m2252.89,443.7c-27.21,5.44-25.85-23.44-40.5-31.84-21.54,1.36-45.19-13.67-63.89,11.16,15.75,16.76,36.15,25.86,55.74,36.18,11.47,6.04,23.25,11.65,34.11,18.65,24.75,15.95,33.5,38.31,26.06,63.94-7.76,26.73-30.75,42.67-58.76,44.31-30.22,1.77-54.01-12.14-77.67-27.35-8.12-5.22-10.31-13.74-6.38-22.2,4.18-8.98,12.85-9.34,21.78-8.35,14.75,1.64,25.98,12.18,40.52,15.17,7.11,1.46,14.02,1.79,21.03,2.49,11.26,1.12,17.15-5.21,20.99-14.98,4.03-10.24-2.94-15.32-9.1-20.56-22.28-18.95-52.69-22.8-75.69-40.5-12.48-9.61-26.7-17.11-29.83-35.32-2.82-16.42,1.87-30.75,12.51-41.35,25.8-25.7,88.86-29.75,119.32-9.35,15.62,10.46,21.29,43.53,9.73,59.89Z"/><polygon points="578.01 449.51 87.2 449.51 87.2 139.52 178.78 139.52 178.78 78.46 26.14 78.46 26.14 510.56 578.01 510.56 578.01 449.51" fill="#ff8d00"/><polygon points="3057.9 78.46 3057.9 139.52 3149.48 139.52 3149.48 449.51 2658.67 449.51 2658.67 510.56 3210.54 510.56 3210.54 78.46 3057.9 78.46" fill="#ff8d00"/></svg>