<?xml version="1.0" encoding="UTF-8"?><svg id="Layer_2" xmlns="http://www.w3.org/2000/svg" viewBox="0 0 56 77"><path d="m38.96,28.87c-.23-.12-.45-.25-.66-.39-.62-.41-1.19-.9-1.7-1.45-1.27-1.45-1.74-2.93-1.92-3.96h0c-.15-.86-.09-1.41-.08-1.41h-5.78v22.36c0,.3,0,.6-.01.89,0,.04,0,.07,0,.11,0,.02,0,.03,0,.05h0c-.12,1.64-1.05,3.1-2.47,3.91-.73.41-1.55.63-2.39.63-2.69,0-4.88-2.2-4.88-4.91s2.18-4.91,4.88-4.91c.51,0,1.02.08,1.5.24v-5.89c-2.97-.38-5.97.49-8.27,2.42-1,.87-1.83,1.9-2.48,3.05-.24.42-1.16,2.11-1.28,4.86-.07,1.56.4,3.17.62,3.84h0c.14.41.68,1.75,1.57,2.88.71.91,1.56,1.7,2.5,2.36h0s.01,0,.01,0c2.8,1.9,5.9,1.78,5.9,1.78.54-.02,2.34,0,4.38-.97,2.27-1.07,3.56-2.67,3.56-2.67.82-.96,1.48-2.05,1.94-3.22.52-1.38.7-3.02.7-3.68v-11.86c.07.04,1,.66,1,.66,0,0,1.35.86,3.45,1.42,1.51.4,3.54.48,3.54.48v-5.74c-.71.08-2.16-.15-3.63-.88Z" fill="#fff"/></svg>