<?xml version="1.0" encoding="UTF-8"?><svg id="Layer_1" xmlns="http://www.w3.org/2000/svg" viewBox="0 0 360 360"><path d="m59.22,229.42c22.78,22.79,53.07,35.33,85.3,35.33,23.18,0,45.64-6.54,64.92-18.91l3.75-2.4,88.28,88.28c3.09,3.09,7.19,4.79,11.55,4.79s8.46-1.7,11.55-4.79l6.78-6.78c6.37-6.37,6.37-16.73,0-23.1l-88.14-88.14,2.46-3.76c12.75-19.5,19.48-42.25,19.48-65.8,0-32.22-12.55-62.51-35.33-85.29-22.78-22.79-53.07-35.33-85.3-35.33s-62.52,12.55-85.29,35.33c-22.79,22.78-35.33,53.07-35.33,85.3s12.55,62.52,35.33,85.29ZM144.51,56.17c48.5,0,87.96,39.46,87.96,87.96s-39.46,87.96-87.96,87.96-87.96-39.46-87.96-87.96,39.46-87.96,87.96-87.96Z"/></svg>