<?xml version="1.0" encoding="UTF-8"?><svg id="Layer_2" xmlns="http://www.w3.org/2000/svg" viewBox="0 0 56 50"><path d="m28.02,7.79c8.03,0,16.06,0,24.09,0,.13,0,.26,0,.39,0,.42,0,.78.35.8.78,0,.03,0,.07,0,.1,0,10.88,0,21.77,0,32.65,0,.16-.04.34-.12.49-.15.29-.42.4-.74.4-.72,0-1.45,0-2.17,0-8.73,0-17.46,0-26.19,0-6.82,0-13.65,0-20.47,0-.55,0-.88-.42-.88-.89,0-10.89,0-21.78,0-32.67,0-.2.05-.38.17-.54.16-.23.39-.33.67-.32.8,0,1.6,0,2.4,0,7.36,0,14.72,0,22.08,0Zm-.02,22.29c7.49-6.9,14.97-13.79,22.45-20.69,0,0-.01-.02-.02-.03H5.52c7.51,6.92,14.99,13.81,22.48,20.71Zm-22.05,10.52s0,.02.01.03h44.11c-.08-.07-.15-.12-.23-.18-.99-.73-1.97-1.45-2.96-2.18-2.97-2.19-5.95-4.37-8.92-6.56-1.7-1.25-3.41-2.51-5.11-3.76-.11-.08-.17-.08-.27.01-.68.63-1.36,1.26-2.04,1.89-.64.59-1.28,1.18-1.92,1.77-.18.17-.38.3-.64.29-.24,0-.43-.13-.6-.28-.41-.38-.83-.77-1.25-1.15-.9-.83-1.8-1.65-2.69-2.48-.17-.16-.17-.16-.35-.02-1.08.8-2.16,1.59-3.24,2.39-2.23,1.64-4.45,3.27-6.68,4.91-2.2,1.61-4.39,3.23-6.58,4.84-.21.16-.43.32-.64.47Zm16.16-13.82c-5.93-5.46-11.85-10.92-17.79-16.4v29.48c5.94-4.37,11.85-8.72,17.79-13.08Zm11.78,0c5.95,4.37,11.86,8.72,17.79,13.09V10.38c-5.94,5.48-11.86,10.93-17.79,16.4Z" fill="#fff"/></svg>