<?xml version="1.0" encoding="UTF-8"?><svg id="Layer_1" xmlns="http://www.w3.org/2000/svg" viewBox="0 0 360 360"><path d="m72.69,128.77s0,.02,0,.03c.15,3.18,1.13,9.1,6.05,12.93,2.66,2.07,5.48,2.75,7.23,3.01h86.79v39.18h-97.64c-2.56-.38-6.21-1.18-10.25-3.01-8.62-3.92-13.4-10.08-16.27-13.86-12.12-15.96-12.62-34.59-12.66-37.37-.03-2.54-.04-22.43,12.66-39.18,2.86-3.76,7.64-9.93,16.27-13.86,4.04-1.84,7.68-2.63,10.25-3.01h97.64v39.18h-86.79c-1.75.26-4.57.95-7.23,3.01-4.94,3.84-5.91,9.78-6.05,12.96Z"/><path d="m287.31,128.77s0,.02,0,.03c-.15,3.18-1.13,9.1-6.05,12.93-2.66,2.07-5.48,2.75-7.23,3.01h-86.79v39.18h97.64c2.56-.38,6.21-1.18,10.25-3.01,8.62-3.92,13.4-10.08,16.27-13.86,12.12-15.96,12.62-34.59,12.66-37.37.03-2.54.04-22.43-12.66-39.18-2.86-3.76-7.64-9.93-16.27-13.86-4.04-1.84-7.68-2.63-10.25-3.01h-97.64v39.18h86.79c1.75.26,4.57.95,7.23,3.01,4.94,3.84,5.91,9.78,6.05,12.96Z"/><path d="m72.69,231.23s0,.02,0,.03c.15,3.18,1.13,9.1,6.05,12.93,2.66,2.07,5.48,2.75,7.23,3.01h86.79v39.18h-97.64c-2.56-.38-6.21-1.18-10.25-3.01-8.62-3.92-13.4-10.08-16.27-13.86-12.12-15.96-12.62-34.59-12.66-37.37-.03-2.54-.04-22.43,12.66-39.18,2.86-3.76,7.64-9.93,16.27-13.86,4.04-1.84,7.68-2.63,10.25-3.01h97.64v39.18h-86.79c-1.75.26-4.57.95-7.23,3.01-4.94,3.84-5.91,9.78-6.05,12.96Z"/><path d="m287.31,231.23s0,.02,0,.03c-.15,3.18-1.13,9.1-6.05,12.93-2.66,2.07-5.48,2.75-7.23,3.01h-86.79v39.18h97.64c2.56-.38,6.21-1.18,10.25-3.01,8.62-3.92,13.4-10.08,16.27-13.86,12.12-15.96,12.62-34.59,12.66-37.37.03-2.54.04-22.43-12.66-39.18-2.86-3.76-7.64-9.93-16.27-13.86-4.04-1.84-7.68-2.63-10.25-3.01h-97.64v39.18h86.79c1.75.26,4.57.95,7.23,3.01,4.94,3.84,5.91,9.78,6.05,12.96Z"/><rect x="18.47" y="163.12" width="323.05" height="29.53" rx="13.33" ry="13.33" fill="#ff8d00"/></svg>