<?xml version="1.0" encoding="UTF-8"?><svg id="Layer_1" xmlns="http://www.w3.org/2000/svg" viewBox="0 0 431 433.3"><g opacity=".7"><circle cx="215.5" cy="216.65" r="204.21"/><path d="m258.68,216.62c-3.66,3.62-7.14,7.02-10.58,10.46-22.2,22.17-44.39,44.36-66.59,66.54-2.81,2.81-5.64,5.59-8.42,8.42-2.83,2.88-3.1,6.77-.76,9.74,2.72,3.45,7.63,3.71,10.86.5,6.08-6.03,12.12-12.1,18.18-18.15,23.99-23.98,47.98-47.95,71.97-71.93,2.72-2.72,3.33-5.96,1.66-8.99-.34-.62-.79-1.21-1.29-1.71-30.17-30.17-60.36-60.33-90.54-90.48-2.08-2.08-4.58-2.75-7.38-1.88-2.69.84-4.35,2.74-4.88,5.5-.5,2.59.33,4.8,2.19,6.65,12.56,12.54,25.11,25.09,37.66,37.63,15.7,15.69,31.4,31.38,47.1,47.06.17.17.38.29.83.63Z" fill="#fff"/></g></svg>