<?xml version="1.0" encoding="UTF-8"?><svg id="Layer_2" xmlns="http://www.w3.org/2000/svg" viewBox="0 0 320 456"><path d="m312.44,132.86C295.1,33.16,189.54-22.7,97.07,18.4,15.16,54.83-18.76,155.87,26.12,233.37c26.91,46.48,55.91,91.79,84.29,137.42,16.14,25.97,32.89,51.56,50.06,78.43,11.18-17.42,21.92-33.68,32.19-50.21,34.51-55.58,69.27-111.01,103.09-166.98,18.45-30.53,22.7-64.44,16.67-99.16Zm-151.43,94.02c-37.79,0-68.29-30.21-68.29-67.69s30.16-67.95,67.92-67.94c37.67.02,67.8,30.38,67.69,68.17-.12,36.94-30.56,67.45-67.32,67.45Z"/><path d="m271,159.6c-.18,55.92-46.26,102.11-101.91,102.11s-103.37-45.73-103.37-102.46,45.66-102.86,102.81-102.84c57.03.03,102.64,45.99,102.46,103.19Z"/><path d="m81.13,120.65s0,.01,0,.02c.11,2.36.83,6.74,4.48,9.57,1.97,1.53,4.06,2.04,5.35,2.23h64.24v29h-72.27c-1.9-.28-4.6-.87-7.58-2.23-6.38-2.9-9.92-7.46-12.05-10.26-8.97-11.81-9.34-25.61-9.37-27.66-.03-1.88-.03-16.6,9.37-29,2.11-2.79,5.66-7.35,12.05-10.26,2.99-1.36,5.69-1.95,7.58-2.23h72.27v29h-64.24c-1.3.19-3.39.7-5.35,2.23-3.65,2.84-4.37,7.24-4.48,9.59Z" fill="#fff"/><path d="m239.99,120.65s0,.01,0,.02c-.11,2.36-.83,6.74-4.48,9.57-1.97,1.53-4.06,2.04-5.35,2.23h-64.24v29h72.27c1.9-.28,4.6-.87,7.58-2.23,6.38-2.9,9.92-7.46,12.05-10.26,8.97-11.81,9.34-25.61,9.37-27.66.03-1.88.03-16.6-9.37-29-2.11-2.79-5.66-7.35-12.05-10.26-2.99-1.36-5.69-1.95-7.58-2.23h-72.27v29h64.24c1.3.19,3.39.7,5.35,2.23,3.65,2.84,4.37,7.24,4.48,9.59Z" fill="#fff"/><path d="m81.13,196.5s0,.01,0,.02c.11,2.36.83,6.74,4.48,9.57,1.97,1.53,4.06,2.04,5.35,2.23h64.24v29h-72.27c-1.9-.28-4.6-.87-7.58-2.23-6.38-2.9-9.92-7.46-12.05-10.26-8.97-11.81-9.34-25.61-9.37-27.66-.03-1.88-.03-16.6,9.37-29,2.11-2.79,5.66-7.35,12.05-10.26,2.99-1.36,5.69-1.95,7.58-2.23h72.27v29h-64.24c-1.3.19-3.39.7-5.35,2.23-3.65,2.84-4.37,7.24-4.48,9.59Z" fill="#fff"/><path d="m239.99,196.5s0,.01,0,.02c-.11,2.36-.83,6.74-4.48,9.57-1.97,1.53-4.06,2.04-5.35,2.23h-64.24v29h72.27c1.9-.28,4.6-.87,7.58-2.23,6.38-2.9,9.92-7.46,12.05-10.26,8.97-11.81,9.34-25.61,9.37-27.66.03-1.88.03-16.6-9.37-29-2.11-2.79-5.66-7.35-12.05-10.26-2.99-1.36-5.69-1.95-7.58-2.23h-72.27v29h64.24c1.3.19,3.39.7,5.35,2.23,3.65,2.84,4.37,7.24,4.48,9.59Z" fill="#fff"/><rect x="40.99" y="147.64" width="239.13" height="21.86" rx=".9" ry=".9" fill="#ff8d00"/></svg>